name C:\Users\u0101727\Documents\MyRepositories\upper-imu-dc\Results\main_tracking\Case_44\kinematics_filtered.mot
datacolumns 10
datarows 52
range 0.50000000 1.01000000
endheader 
time	clav_prot	clav_elev	scapula_abduction	scapula_elevation	scapula_upward_rot	scapula_winging	plane_elv	shoulder_elv	axial_rot	
          0.50000000	        -23.88230270	         -6.29492398	        -15.17780348	         -4.85934004	         10.25200458	          6.76884665	        -33.75703837	         12.17985066	         49.42528041	
          0.51000000	        -23.82354900	         -6.32950760	        -15.20029020	         -4.91266032	         10.31056840	          6.77281184	        -32.66135649	         12.30842431	         48.52357704	
          0.52000000	        -23.77121123	         -6.36594070	        -15.21786555	         -4.96674092	         10.37004355	          6.77683598	        -31.55046978	         12.43876358	         47.60950731	
          0.53000000	        -23.72941865	         -6.40457919	        -15.22788856	         -5.02114826	         10.43006161	          6.78086696	        -30.43346486	         12.56986989	         46.69058805	
          0.54000000	        -23.69981345	         -6.44540672	        -15.22975670	         -5.07561939	         10.49046972	          6.78485245	        -29.31583629	         12.70120347	         45.77136331	
          0.55000000	        -23.68221205	         -6.48814478	        -15.22430530	         -5.13002603	         10.55129014	          6.78873646	        -28.20021885	         12.83260301	         44.85399398	
          0.56000000	        -23.67538763	         -6.53238702	        -15.21311603	         -5.18433859	         10.61267888	          6.79245725	        -27.08712762	         12.96420287	         43.93885260	
          0.57000000	        -23.67764086	         -6.57769198	        -15.19801908	         -5.23859386	         10.67488771	          6.79594621	        -25.97562259	         13.09635760	         43.02505634	
          0.58000000	        -23.68718350	         -6.62364113	        -15.18076588	         -5.29286816	         10.73823159	          6.79912771	        -24.86385803	         13.22957885	         42.11090652	
          0.59000000	        -23.70236979	         -6.66986963	        -15.16283977	         -5.34725631	         10.80306244	          6.80191936	        -23.74950616	         13.36448562	         41.19422761	
          0.60000000	        -23.72181292	         -6.71607778	        -15.14536895	         -5.40185638	         10.86974915	          6.80423278	        -22.63006355	         13.50176693	         40.27261428	
          0.61000000	        -23.74442021	         -6.76202976	        -15.12910808	         -5.45675918	         10.93866320	          6.80597452	        -21.50305826	         13.64215480	         39.34360238	
          0.62000000	        -23.76937627	         -6.80754504	        -15.11446173	         -5.51204172	         11.01016852	          6.80704708	        -20.36617869	         13.78640512	         38.40478182	
          0.63000000	        -23.79609799	         -6.85248666	        -15.10153105	         -5.56776357	         11.08461450	          6.80735020	        -19.21734442	         13.93528425	         37.45386795	
          0.64000000	        -23.82417885	         -6.89674889	        -15.09017043	         -5.62396537	         11.16233109	          6.80678219	        -18.05473743	         14.08955925	         36.48874570	
          0.65000000	        -23.85333387	         -6.94024614	        -15.08004532	         -5.68066872	         11.24362522	          6.80524134	        -16.87680869	         14.24999024	         35.50749766	
          0.66000000	        -23.88335169	         -6.98290381	        -15.07068517	         -5.73787693	         11.32877815	          6.80262733	        -15.68227150	         14.41732373	         34.50842400	
          0.67000000	        -23.91405627	         -7.02465165	        -15.06152838	         -5.79557639	         11.41804337	          6.79884270	        -14.47008943	         14.59228630	         33.49005901	
          0.68000000	        -23.94527915	         -7.06541946	        -15.05195821	         -5.85373822	         11.51164483	          6.79379421	        -13.23946333	         14.77557839	         32.45118608	
          0.69000000	        -23.97684257	         -7.10513481	        -15.04133271	         -5.91232004	         11.60977511	          6.78739432	        -11.98981914	         14.96786868	         31.39085108	
          0.70000000	        -24.00855319	         -7.14372230	        -15.02901178	         -5.97126776	         11.71259367	          6.77956247	        -10.72079691	         15.16978897	         30.30837267	
          0.71000000	        -24.04020475	         -7.18110360	        -15.01438278	         -6.03051732	         11.82022548	          6.77022617	         -9.43224144	         15.38192969	         29.20334886	
          0.72000000	        -24.07158636	         -7.21719816	        -14.99688351	         -6.08999642	         11.93276057	          6.75932163	         -8.12419454	         15.60483608	         28.07565891	
          0.73000000	        -24.10249337	         -7.25192400	        -14.97602099	         -6.14962617	         12.05025478	          6.74679400	         -6.79688871	         15.83900498	         26.92545975	
          0.74000000	        -24.13273885	         -7.28519869	        -14.95138592	         -6.20932284	         12.17273169	          6.73259701	         -5.45074127	         16.08488260	         25.75317602	
          0.75000000	        -24.16216489	         -7.31694009	        -14.92266388	         -6.26899943	         12.30018573	          6.71669241	         -4.08634793	         16.34286349	         24.55948299	
          0.76000000	        -24.19065326	         -7.34706692	        -14.88964430	         -6.32856734	         12.43258625	          6.69904877	         -2.70447523	         16.61329067	         23.34528225	
          0.77000000	        -24.21813405	         -7.37549880	        -14.85222570	         -6.38793784	         12.56988279	          6.67964009	         -1.30605190	         16.89645661	         22.11167164	
          0.78000000	        -24.24459046	         -7.40215612	        -14.81041473	         -6.44702348	         12.71201155	          6.65844381	          0.10784042	         17.19260456	         20.85991108	
          0.79000000	        -24.27005892	         -7.42695964	        -14.76431785	         -6.50573940	         12.85890278	          6.63543875	          1.53597717	         17.50193028	         19.59138614	
          0.80000000	        -24.29462508	         -7.44982996	        -14.71412701	         -6.56400435	         13.01048838	          6.61060281	          2.97700182	         17.82458373	         18.30757073	
          0.81000000	        -24.31841707	         -7.47068685	        -14.66010175	         -6.62174148	         13.16670932	          6.58391088	          4.42943833	         18.16067097	         17.00999061	
          0.82000000	        -24.34159704	         -7.48944839	        -14.60254982	         -6.67887875	         13.32752223	          6.55533279	          5.89170480	         18.51025559	         15.70018902	
          0.83000000	        -24.36435198	         -7.50603001	        -14.54180761	         -6.73534890	         13.49290506	          6.52483148	          7.36212815	         18.87335959	         14.37969652	
          0.84000000	        -24.38688464	         -7.52034347	        -14.47822190	         -6.79108923	         13.66286159	          6.49236157	          8.83895932	         19.24996348	         13.05000611	
          0.85000000	        -24.40940573	         -7.53229599	        -14.41213485	         -6.84604110	         13.83742446	          6.45786819	         10.32038899	         19.64000576	         11.71255468	
          0.86000000	        -24.43212855	         -7.54178939	        -14.34387401	         -6.90014933	         14.01665692	          6.42128628	         11.80456346	         20.04338203	         10.36871131	
          0.87000000	        -24.45526580	         -7.54871955	        -14.27374661	         -6.95336165	         14.20065357	          6.38254019	         13.28960038	         20.45994384	          9.01977277	
          0.88000000	        -24.47902716	         -7.55297621	        -14.20203534	         -7.00562835	         14.38954066	          6.34154361	         14.77360365	         20.88949741	          7.66696668	
          0.89000000	        -24.50361585	         -7.55444327	        -14.12899225	         -7.05690228	         14.58347634	          6.29819974	         16.25467697	         21.33180247	          6.31146213	
          0.90000000	        -24.52922278	         -7.55299983	        -14.05482809	         -7.10713924	         14.78265122	          6.25240177	         17.73093588	         21.78657153	          4.95438734	
          0.91000000	        -24.55601724	         -7.54852186	        -13.97969550	         -7.15629866	         14.98728891	          6.20403377	         19.20051822	         22.25346997	          3.59685326	
          0.92000000	        -24.58413353	         -7.54088462	        -13.90366515	         -7.20434454	         15.19764666	          6.15297192	         20.66159316	         22.73211707	          2.23998192	
          0.93000000	        -24.61365354	         -7.52996556	        -13.82669491	         -7.25124647	         15.41401544	          6.09908625	         22.11236868	         23.22208798	          0.88493814	
          0.94000000	        -24.64458633	         -7.51564777	        -13.74859449	         -7.29698049	         15.63671907	          6.04224294	         23.55109780	         23.72291647	         -0.46703730	
          0.95000000	        -24.67684704	         -7.49782349	        -13.66899009	         -7.34152953	         15.86611130	          5.98230724	         24.97608377	         24.23409862	         -1.81459496	
          0.96000000	        -24.71023858	         -7.47639761	        -13.58729541	         -7.38488340	         16.10257027	          5.91914701	         26.38568453	         24.75509697	         -3.15624696	
          0.97000000	        -24.74443977	         -7.45129082	        -13.50269596	         -7.42703800	         16.34648950	          5.85263691	         27.77831683	         25.28534524	         -4.49034220	
          0.98000000	        -24.77900316	         -7.42244202	        -13.41415230	         -7.46799387	         16.59826529	          5.78266303	         29.15246012	         25.82425325	         -5.81504897	
          0.99000000	        -24.81336452	         -7.38981009	        -13.32042540	         -7.50775419	         16.85828092	          5.70912765	         30.50666033	         26.37121190	         -7.12834657	
          1.00000000	        -24.84686393	         -7.35337475	        -13.22012387	         -7.54632234	         17.12688842	          5.63195401	         31.83953367	         26.92559809	         -8.42802718	
          1.01000000	        -24.87877683	         -7.31313665	        -13.11176868	         -7.58369950	         17.40438954	          5.55109046	         33.14977015	         27.48677940	         -9.71170854	
